<svg id="Layer_1" data-name="Layer 1" xmlns="http://www.w3.org/2000/svg" viewBox="0 0 212.65 53.19"><defs><style>.cls-1{opacity:0.2;}.cls-2{fill:#ababab;}.cls-3{fill:#db1963;}.cls-4{fill:#26bfcc;}</style></defs><title>redgum-logo-2</title><g class="cls-1"><path class="cls-2" d="M112.83,31.5l-0.61.22A0.67,0.67,0,0,0,112.83,31.5Z" transform="translate(0 0)"/><path class="cls-2" d="M111.14,31.91l1-.35,0.61-.22,0.48-.18-0.28.43a0.82,0.82,0,0,1-.75.3Z" transform="translate(0 0)"/></g><g class="cls-1"><path class="cls-2" d="M112.83,31.5l-0.61.22A0.67,0.67,0,0,0,112.83,31.5Z" transform="translate(0 0)"/><path class="cls-2" d="M111.14,31.91l1-.35,0.61-.22,0.48-.18-0.28.43a0.82,0.82,0,0,1-.75.3Z" transform="translate(0 0)"/></g><path class="cls-3" d="M26.47,53.19a2.2,2.2,0,0,1-1.4-.5L8.78,39.3a2.21,2.21,0,0,1,1.4-3.91H28.94a3.13,3.13,0,0,0,3.13-3.13V11.31a2.21,2.21,0,1,1,4.41,0V32.26a7.55,7.55,0,0,1-7.54,7.54H16.34l11.53,9.48A2.21,2.21,0,0,1,26.47,53.19Z" transform="translate(0 0)"/><path class="cls-4" d="M2.21,43.06A2.21,2.21,0,0,1,0,40.86v-30A7.55,7.55,0,0,1,7.54,3.34h21a2.21,2.21,0,0,1,0,4.41h-21a3.13,3.13,0,0,0-3.13,3.13v30A2.21,2.21,0,0,1,2.21,43.06Z" transform="translate(0 0)"/><path class="cls-2" d="M51.8,34.4a2.12,2.12,0,0,1-2.12-2.12V15.14a6.54,6.54,0,0,1,6.54-6.54H63a2.12,2.12,0,1,1,0,4.24H56.21a2.29,2.29,0,0,0-2.29,2.29V32.28A2.12,2.12,0,0,1,51.8,34.4Z" transform="translate(0 0)"/><path class="cls-2" d="M87.79,34.4H75.86a6.54,6.54,0,0,1-6.54-6.54V15.14A6.54,6.54,0,0,1,75.86,8.6h8a6.54,6.54,0,0,1,6.54,6.54v8.79H73.56v3.94a2.29,2.29,0,0,0,2.29,2.29H87.79A2.12,2.12,0,0,1,87.79,34.4ZM73.56,19.68H86.17V15.14a2.29,2.29,0,0,0-2.29-2.29h-8a2.29,2.29,0,0,0-2.29,2.29v4.55Z" transform="translate(0 0)"/><path class="cls-2" d="M117,34.4H102.46a6.54,6.54,0,0,1-6.54-6.54V15.14a6.54,6.54,0,0,1,6.54-6.54h10.32V2.12a2.12,2.12,0,1,1,4.24,0V34.4ZM102.46,12.85a2.29,2.29,0,0,0-2.29,2.29V27.87a2.29,2.29,0,0,0,2.29,2.29h10.32V12.85H102.46Z" transform="translate(0 0)"/><path class="cls-2" d="M170.87,34.4H156.31a6.54,6.54,0,0,1-6.54-6.54V10.73a2.12,2.12,0,1,1,4.24,0V27.87a2.29,2.29,0,0,0,2.29,2.29h10.32V10.73a2.12,2.12,0,1,1,4.24,0V34.4Z" transform="translate(0 0)"/><path class="cls-2" d="M137.42,43H126.25a2.12,2.12,0,0,1,0-4.24h11.17a2.29,2.29,0,0,0,2.29-2.29V34.4H129.39a6.54,6.54,0,0,1-6.54-6.54V15.14a6.54,6.54,0,0,1,6.54-6.54H144V36.47A6.54,6.54,0,0,1,137.42,43Zm-8-30.16a2.29,2.29,0,0,0-2.29,2.29V27.87a2.29,2.29,0,0,0,2.29,2.29h10.32V12.85H129.39Z" transform="translate(0 0)"/><path class="cls-2" d="M200.52,8.61h-4.08A6.5,6.5,0,0,0,192,10.33a6.5,6.5,0,0,0-4.41-1.73H177V32.28a2.12,2.12,0,0,0,4.24,0V12.85h6.37a2.29,2.29,0,0,1,2.29,2.29V32.28a2.15,2.15,0,0,0,0,.22v0.07s0,0.09,0,.14l0,0.08,0,0.12L190,33l0,0.11,0,0.08,0.05,0.1,0,0.08,0.06,0.1,0.06,0.08,0.07,0.09,0.06,0.07,0.08,0.08,0.07,0.06,0.08,0.07L190.77,34l0.09,0.06,0.08,0.05L191,34.16l0.09,0,0.1,0,0.09,0,0.1,0,0.1,0,0.11,0,0.1,0h0.62l0.16,0h0a2.12,2.12,0,0,0,1.63-2.06V12.85h6.37a2.29,2.29,0,0,1,2.29,2.29V32.19a2.18,2.18,0,0,0,2.06,2.21,2.12,2.12,0,0,0,2.19-2.12V15.14A6.54,6.54,0,0,0,200.52,8.61Z" transform="translate(0 0)"/><path class="cls-2" d="M209.49,5.69V6h-1V8.61h-0.4V6h-1V5.69h2.37Z" transform="translate(0 0)"/><path class="cls-2" d="M209.85,5.69h0.57l0.84,2.47,0.83-2.47h0.56V8.61h-0.38V6.88q0-.09,0-0.3t0-.44l-0.83,2.46h-0.39l-0.84-2.46V6.23q0,0.11,0,.33t0,0.32V8.61h-0.38V5.69Z" transform="translate(0 0)"/></svg>